<?xml version="1.0" encoding="UTF-8"?><svg id="Layer_1" xmlns="http://www.w3.org/2000/svg" viewBox="0 0 345.71 120.69"><defs><style>.cls-1{font-family:HelveticaNeue-Medium, 'Helvetica Neue';font-size:72px;font-weight:500;}.cls-1,.cls-2{fill:#f97316;}</style></defs><path class="cls-2" d="M80.29,67.2l32.15-6.35c.55-.11.55-.9,0-1l-36.83-7.28-7.28-36.83c-.11-.55-.9-.55-1,0l-6.53,33.07-9.87-6.82c-.43-.3-.98.17-.75.64l5.24,10.85-32.18,6.36c-.55.11-.55.9,0,1l36.83,7.28,7.28,36.83c.11.55.9.55,1,0l6.67-33.77,9.21,6.36c.43.3.98-.17.75-.64l-4.68-9.7Z"/><text class="cls-1" transform="translate(127.25 86.05)"><tspan x="0" y="0">Spark</tspan></text></svg>